# xmcd
#
# Track frame offsets:
#	300
#	15294
#	29963
#	46979
#	60900
#	75205
#	92697
#	108024
#	127068
#	142235
#	155544
#	175152
#	192570
#	209277
#	229152
#	245827
#
# Disc length: 3506 seconds
#
# Revision: 1
# Processed by: cddbd v1.5.2PL0 Copyright (c) Steve Scherf et al.
# Submitted via: audiograbber 1.83.01
#
DISCID=d90dae10
DTITLE=90's Country Vol. 2 - ESP460-05
DYEAR=1900
DGENRE=
TTITLE0=Lonestar - No News
TTITLE1=Travis Tritt - Hony Tonkin's What I Do Best
TTITLE2=Womack, Lee Ann - The Fool
TTITLE3=John Michael Montgomery - Ain't Got Nothin' On Us
TTITLE4=Kershaw, Sammy - Vidalia
TTITLE5=Shania Twain - Don't Be Stupid (You Know I Love you)
TTITLE6=Walker, Clay - Watch This
TTITLE7=James Bonamy - All i Do Is Love Her
TTITLE8=Terri Clark - Emotional Girl
TTITLE9=Mark chesnutt - Gonna Get A Life
TTITLE10=Collin Raye - One Boy, One Girl
TTITLE11=Lila McCann - I Wanna Fall In Love
TTITLE12=Travis Tritt - More Than You'll Ever Know 
TTITLE13=Alan Jackson - Who's Cheatin' Who
TTITLE14=Reba McEntire - I'd Rather Ride Around With You
TTITLE15=Bryan White - I'm Not Supposed To Love You
EXTD=
EXTT0=
EXTT1=
EXTT2=
EXTT3=
EXTT4=
EXTT5=
EXTT6=
EXTT7=
EXTT8=
EXTT9=
EXTT10=
EXTT11=
EXTT12=
EXTT13=
EXTT14=
EXTT15=
PLAYORDER=
